<svg width="54" height="42" viewBox="0 0 54 42" fill="none" xmlns="http://www.w3.org/2000/svg">
<path d="M0.22632 0.457996H16.6403V41H7.94032V8.172H0.22632V0.457996ZM51.3689 0.457996V8.288H35.3609V15.074C36.5596 14.726 37.9322 14.552 39.4789 14.552C43.3842 14.552 46.7482 15.7313 49.5709 18.09C52.3936 20.4487 53.8049 23.6387 53.8049 27.66C53.8049 31.6427 52.3356 34.9487 49.3969 37.578C46.4969 40.1687 42.9009 41.464 38.6089 41.464C33.1182 41.464 28.5362 39.434 24.8629 35.374L29.6189 28.762C29.9669 29.11 30.4309 29.5353 31.0109 30.038C31.5909 30.5407 32.6542 31.2173 34.2009 32.068C35.7476 32.88 37.2942 33.286 38.8409 33.286C40.3876 33.286 41.7602 32.822 42.9589 31.894C44.1576 30.966 44.7569 29.5933 44.7569 27.776C44.7569 25.9587 44.0996 24.5667 42.7849 23.6C41.5089 22.5947 39.8462 22.092 37.7969 22.092C35.7476 22.092 33.3696 22.8267 30.6629 24.296L26.8929 20.236V0.457996H51.3689Z" fill="#FF685B"/>
</svg>
