<svg width="98" height="42" viewBox="0 0 98 42" fill="none" xmlns="http://www.w3.org/2000/svg">
<path d="M0.537452 0.457996H16.9515V41H8.25145V8.172H0.537452V0.457996ZM51.68 0.457996V8.288H35.672V15.074C36.8707 14.726 38.2434 14.552 39.79 14.552C43.6954 14.552 47.0594 15.7313 49.882 18.09C52.7047 20.4487 54.116 23.6387 54.116 27.66C54.116 31.6427 52.6467 34.9487 49.708 37.578C46.808 40.1687 43.212 41.464 38.92 41.464C33.4294 41.464 28.8474 39.434 25.174 35.374L29.93 28.762C30.278 29.11 30.742 29.5353 31.322 30.038C31.902 30.5407 32.9654 31.2173 34.512 32.068C36.0587 32.88 37.6054 33.286 39.152 33.286C40.6987 33.286 42.0714 32.822 43.27 31.894C44.4687 30.966 45.068 29.5933 45.068 27.776C45.068 25.9587 44.4107 24.5667 43.096 23.6C41.82 22.5947 40.1574 22.092 38.108 22.092C36.0587 22.092 33.6807 22.8267 30.974 24.296L27.204 20.236V0.457996H51.68ZM62.0708 0.457996H71.1188V17.104L86.4308 0.457996H97.6248L81.5008 18.38C82.8928 20.3133 85.4641 23.9287 89.2148 29.226C92.9655 34.4847 95.7688 38.4093 97.6248 41H87.0688L75.1788 24.992L71.1188 29.516V41H62.0708V0.457996Z" fill="#FF685B"/>
</svg>
