<svg width="134" height="43" viewBox="0 0 134 43" fill="none" xmlns="http://www.w3.org/2000/svg">
<path d="M0.321239 1.458H16.7352V42H8.03524V9.172H0.321239V1.458ZM36.1518 11.724C34.8758 14.1987 34.2378 17.466 34.2378 21.526C34.2378 25.586 34.8758 28.8533 36.1518 31.328C37.4278 33.8027 39.4192 35.04 42.1258 35.04C44.8325 35.04 46.8238 33.8027 48.0998 31.328C49.3758 28.8533 50.0138 25.586 50.0138 21.526C50.0138 17.466 49.3758 14.1987 48.0998 11.724C46.8238 9.24933 44.8325 8.012 42.1258 8.012C39.4192 8.012 37.4278 9.24933 36.1518 11.724ZM42.1258 42.464C36.5192 42.464 32.3238 40.5693 29.5398 36.78C26.7558 32.952 25.3638 27.8673 25.3638 21.526C25.3638 15.146 26.7558 10.0613 29.5398 6.272C32.3238 2.444 36.5192 0.529998 42.1258 0.529998C47.7325 0.529998 51.9278 2.444 54.7118 6.272C57.4958 10.0613 58.8878 15.146 58.8878 21.526C58.8878 27.8673 57.4958 32.952 54.7118 36.78C51.9278 40.5693 47.7325 42.464 42.1258 42.464ZM76.3967 11.724C75.1207 14.1987 74.4827 17.466 74.4827 21.526C74.4827 25.586 75.1207 28.8533 76.3967 31.328C77.6727 33.8027 79.6641 35.04 82.3707 35.04C85.0774 35.04 87.0687 33.8027 88.3447 31.328C89.6207 28.8533 90.2587 25.586 90.2587 21.526C90.2587 17.466 89.6207 14.1987 88.3447 11.724C87.0687 9.24933 85.0774 8.012 82.3707 8.012C79.6641 8.012 77.6727 9.24933 76.3967 11.724ZM82.3707 42.464C76.7641 42.464 72.5687 40.5693 69.7847 36.78C67.0007 32.952 65.6087 27.8673 65.6087 21.526C65.6087 15.146 67.0007 10.0613 69.7847 6.272C72.5687 2.444 76.7641 0.529998 82.3707 0.529998C87.9774 0.529998 92.1727 2.444 94.9567 6.272C97.7407 10.0613 99.1327 15.146 99.1327 21.526C99.1327 27.8673 97.7407 32.952 94.9567 36.78C92.1727 40.5693 87.9774 42.464 82.3707 42.464ZM115.54 35.678V25.238H105.39V18.104H115.54V7.664H123.544V18.104H133.694V25.238H123.544V35.678H115.54Z" fill="#FF685B"/>
</svg>
