<svg width="139" height="43" viewBox="0 0 139 43" fill="none" xmlns="http://www.w3.org/2000/svg">
<path d="M0.914989 1.458H17.329V42H8.62899V9.172H0.914989V1.458ZM52.0576 1.458V9.288H36.0496V16.074C37.2482 15.726 38.6209 15.552 40.1676 15.552C44.0729 15.552 47.4369 16.7313 50.2596 19.09C53.0822 21.4487 54.4936 24.6387 54.4936 28.66C54.4936 32.6427 53.0242 35.9487 50.0856 38.578C47.1856 41.1687 43.5896 42.464 39.2976 42.464C33.8069 42.464 29.2249 40.434 25.5516 36.374L30.3076 29.762C30.6556 30.11 31.1196 30.5353 31.6996 31.038C32.2796 31.5407 33.3429 32.2173 34.8896 33.068C36.4362 33.88 37.9829 34.286 39.5296 34.286C41.0762 34.286 42.4489 33.822 43.6476 32.894C44.8462 31.966 45.4456 30.5933 45.4456 28.776C45.4456 26.9587 44.7882 25.5667 43.4736 24.6C42.1976 23.5947 40.5349 23.092 38.4856 23.092C36.4362 23.092 34.0582 23.8267 31.3516 25.296L27.5816 21.236V1.458H52.0576ZM71.4964 11.724C70.2204 14.1987 69.5824 17.466 69.5824 21.526C69.5824 25.586 70.2204 28.8533 71.4964 31.328C72.7724 33.8027 74.7637 35.04 77.4704 35.04C80.177 35.04 82.1684 33.8027 83.4444 31.328C84.7204 28.8533 85.3584 25.586 85.3584 21.526C85.3584 17.466 84.7204 14.1987 83.4444 11.724C82.1684 9.24933 80.177 8.012 77.4704 8.012C74.7637 8.012 72.7724 9.24933 71.4964 11.724ZM77.4704 42.464C71.8637 42.464 67.6684 40.5693 64.8844 36.78C62.1004 32.952 60.7084 27.8673 60.7084 21.526C60.7084 15.146 62.1004 10.0613 64.8844 6.272C67.6684 2.444 71.8637 0.529998 77.4704 0.529998C83.077 0.529998 87.2724 2.444 90.0564 6.272C92.8404 10.0613 94.2324 15.146 94.2324 21.526C94.2324 27.8673 92.8404 32.952 90.0564 36.78C87.2724 40.5693 83.077 42.464 77.4704 42.464ZM102.693 1.458H111.741V18.104L127.053 1.458H138.247L122.123 19.38C123.515 21.3133 126.087 24.9287 129.837 30.226C133.588 35.4847 136.391 39.4093 138.247 42H127.691L115.801 25.992L111.741 30.516V42H102.693V1.458Z" fill="#FF685B"/>
</svg>
